# Blender 4.1.1
# www.blender.org
mtllib box.mtl
o box_lowp
v 0.869936 1.062799 -0.592121
v 0.869936 0.037702 0.592121
v 0.869936 0.037702 -0.592121
v 0.869936 1.062799 0.592121
v 0.853382 1.110001 -0.646651
v 1.180557 1.110001 -0.646651
v 1.180557 -0.009500 -0.646651
v 1.180557 -0.009500 0.646651
v 1.180557 1.110001 0.646651
v 0.853382 -0.009500 0.646651
v 0.853382 -0.009500 -0.646651
v 0.853382 1.110001 0.646651
v -0.350596 1.062799 -0.592121
v -0.350596 0.037702 0.592121
v -0.350596 0.037702 -0.592121
v -0.350596 1.062799 0.592121
v -0.334042 1.110001 -0.646651
v -0.661216 1.110001 -0.646651
v -0.661216 -0.009500 -0.646651
v -0.661216 -0.009500 0.646651
v -0.661216 1.110001 0.646651
v -0.334042 -0.009500 0.646651
v -0.334042 -0.009500 -0.646651
v -0.334042 1.110001 0.646651
vn -0.9437 -0.3309 -0.0000
vn -0.9569 -0.0000 0.2905
vn -0.9569 -0.0000 -0.2905
vn -0.9437 0.3309 -0.0000
vn -0.0000 -0.0000 -1.0000
vn 1.0000 -0.0000 -0.0000
vn -0.0000 -1.0000 -0.0000
vn -0.0000 -0.0000 1.0000
vn -0.0000 1.0000 -0.0000
vn 0.9437 -0.3309 -0.0000
vn 0.9569 -0.0000 0.2905
vn 0.9569 -0.0000 -0.2905
vn 0.9437 0.3309 -0.0000
vn -1.0000 -0.0000 -0.0000
vt 0.957837 0.119864
vt 0.957837 0.880136
vt 1.000000 0.915144
vt 1.000000 0.084856
vt 0.042164 0.119864
vt 0.000000 0.084856
vt 0.042164 0.880136
vt 0.000000 0.915144
vt 0.000000 0.251947
vt 1.000000 0.251947
vt 1.000000 0.115253
vt 0.000000 0.115254
vt 0.000000 0.748053
vt 0.000000 0.884747
vt 1.000000 0.884746
vt 1.000000 0.748053
vt 0.042164 0.754969
vt 0.957836 0.754969
vt 0.957836 0.245031
vt 0.042164 0.245031
vt 0.957837 0.754969
vt 0.957837 0.245031
s 0
usemtl box
f 1/1/1 4/2/1 12/3/1 5/4/1
f 3/5/2 1/1/2 5/4/2 11/6/2
f 4/2/3 2/7/3 10/8/3 12/3/3
f 2/7/4 3/5/4 11/6/4 10/8/4
f 11/9/5 5/10/5 6/11/5 7/12/5
f 7/6/6 6/4/6 9/3/6 8/8/6
f 11/10/7 7/11/7 8/12/7 10/9/7
f 8/12/8 9/11/8 12/10/8 10/9/8
f 6/11/9 5/10/9 12/9/9 9/12/9
f 13/1/10 17/4/10 24/3/10 16/2/10
f 15/5/11 23/6/11 17/4/11 13/1/11
f 16/2/12 24/3/12 22/8/12 14/7/12
f 14/7/13 22/8/13 23/6/13 15/5/13
f 23/13/5 19/14/5 18/15/5 17/16/5
f 19/6/14 20/8/14 21/3/14 18/4/14
f 23/16/7 22/13/7 20/14/7 19/15/7
f 20/14/8 22/13/8 24/16/8 21/15/8
f 18/15/9 21/14/9 24/13/9 17/16/9
f 14/17/7 15/18/7 3/19/7 2/20/7
f 15/17/5 13/21/5 1/22/5 3/20/5
f 13/18/9 16/17/9 4/20/9 1/19/9
f 16/21/8 14/17/8 2/20/8 4/22/8
