# Blender 4.1.1
# www.blender.org
mtllib boxes1.mtl
o box_lowp.001
v 0.734368 1.062799 0.337411
v 0.425545 0.037702 1.480677
v 0.734368 0.037702 0.337411
v 0.425545 1.062799 1.480677
v 0.732607 1.110001 0.280451
v 1.048461 1.110001 0.365771
v 1.048461 -0.009500 0.365771
v 0.711198 -0.009500 1.614323
v 0.711198 1.110001 1.614323
v 0.395343 -0.009500 1.529004
v 0.732607 -0.009500 0.280451
v 0.395343 1.110001 1.529003
v -0.443933 1.062799 0.019124
v -0.752756 0.037702 1.162390
v -0.443933 0.037702 0.019124
v -0.752756 1.062799 1.162390
v -0.413731 1.110001 -0.029202
v -0.729585 1.110001 -0.114522
v -0.729585 -0.009500 -0.114522
v -1.066848 -0.009500 1.134031
v -1.066848 1.110001 1.134031
v -0.750995 -0.009500 1.219350
v -0.413731 -0.009500 -0.029202
v -0.750995 1.110001 1.219350
vn -0.9110 -0.3309 -0.2461
vn -0.9995 -0.0000 0.0309
vn -0.8480 -0.0000 -0.5300
vn -0.9110 0.3309 -0.2461
vn 0.2608 -0.0000 -0.9654
vn 0.9654 -0.0000 0.2608
vn -0.0000 -1.0000 -0.0000
vn -0.2608 -0.0000 0.9654
vn -0.0000 1.0000 -0.0000
vn 0.9110 -0.3309 0.2461
vn 0.8480 -0.0000 0.5300
vn 0.9995 -0.0000 -0.0309
vn 0.9110 0.3309 0.2461
vn -0.9654 -0.0000 -0.2608
vt 0.957837 0.119864
vt 0.957837 0.880136
vt 1.000000 0.915144
vt 1.000000 0.084856
vt 0.042164 0.119864
vt 0.000000 0.084856
vt 0.042164 0.880136
vt 0.000000 0.915144
vt 0.000000 0.251947
vt 1.000000 0.251947
vt 1.000000 0.115253
vt 0.000000 0.115254
vt 0.000000 0.748053
vt 0.000000 0.884747
vt 1.000000 0.884746
vt 1.000000 0.748053
vt 0.042164 0.754969
vt 0.957836 0.754969
vt 0.957836 0.245031
vt 0.042164 0.245031
vt 0.957837 0.754969
vt 0.957837 0.245031
s 0
usemtl box
f 1/1/1 4/2/1 12/3/1 5/4/1
f 3/5/2 1/1/2 5/4/2 11/6/2
f 4/2/3 2/7/3 10/8/3 12/3/3
f 2/7/4 3/5/4 11/6/4 10/8/4
f 11/9/5 5/10/5 6/11/5 7/12/5
f 7/6/6 6/4/6 9/3/6 8/8/6
f 11/10/7 7/11/7 8/12/7 10/9/7
f 8/12/8 9/11/8 12/10/8 10/9/8
f 6/11/9 5/10/9 12/9/9 9/12/9
f 13/1/10 17/4/10 24/3/10 16/2/10
f 15/5/11 23/6/11 17/4/11 13/1/11
f 16/2/12 24/3/12 22/8/12 14/7/12
f 14/7/13 22/8/13 23/6/13 15/5/13
f 23/13/5 19/14/5 18/15/5 17/16/5
f 19/6/14 20/8/14 21/3/14 18/4/14
f 23/16/7 22/13/7 20/14/7 19/15/7
f 20/14/8 22/13/8 24/16/8 21/15/8
f 18/15/9 21/14/9 24/13/9 17/16/9
f 14/17/7 15/18/7 3/19/7 2/20/7
f 15/17/5 13/21/5 1/22/5 3/20/5
f 13/18/9 16/17/9 4/20/9 1/19/9
f 16/21/8 14/17/8 2/20/8 4/22/8
o box_lowp.002
v 0.965995 1.062799 -0.990615
v 0.509446 0.037702 0.102084
v 0.965995 0.037702 -0.990615
v 0.509446 1.062799 0.102084
v 0.971744 1.110001 -1.047312
v 1.273628 1.110001 -0.921180
v 1.273628 -0.009500 -0.921180
v 0.775034 -0.009500 0.272149
v 0.775034 1.110001 0.272149
v 0.473150 -0.009500 0.146017
v 0.971743 -0.009500 -1.047312
v 0.473150 1.110001 0.146017
v -0.160189 1.062799 -1.461155
v -0.616738 0.037702 -0.368456
v -0.160189 0.037702 -1.461155
v -0.616738 1.062799 -0.368456
v -0.123892 1.110001 -1.505088
v -0.425775 1.110001 -1.631220
v -0.425775 -0.009500 -1.631220
v -0.924369 -0.009500 -0.437891
v -0.924369 1.110001 -0.437891
v -0.622486 -0.009500 -0.311759
v -0.123892 -0.009500 -1.505088
v -0.622486 1.110001 -0.311759
vn -0.8707 -0.3309 -0.3638
vn -0.9949 -0.0000 -0.1009
vn -0.7709 -0.0000 -0.6369
vn -0.8707 0.3309 -0.3638
vn 0.3855 -0.0000 -0.9227
vn 0.9227 -0.0000 0.3855
vn -0.0000 -1.0000 -0.0000
vn -0.3855 -0.0000 0.9227
vn -0.0000 1.0000 -0.0000
vn 0.8707 -0.3309 0.3638
vn 0.7709 -0.0000 0.6369
vn 0.9949 -0.0000 0.1009
vn 0.8707 0.3309 0.3638
vn -0.9227 -0.0000 -0.3855
vt 0.957837 0.119864
vt 0.957837 0.880136
vt 1.000000 0.915144
vt 1.000000 0.084856
vt 0.042164 0.119864
vt 0.000000 0.084856
vt 0.042164 0.880136
vt 0.000000 0.915144
vt 0.000000 0.251947
vt 1.000000 0.251947
vt 1.000000 0.115253
vt 0.000000 0.115254
vt 0.000000 0.748053
vt 0.000000 0.884747
vt 1.000000 0.884746
vt 1.000000 0.748053
vt 0.042164 0.754969
vt 0.957836 0.754969
vt 0.957836 0.245031
vt 0.042164 0.245031
vt 0.957837 0.754969
vt 0.957837 0.245031
s 0
usemtl box
f 25/23/15 28/24/15 36/25/15 29/26/15
f 27/27/16 25/23/16 29/26/16 35/28/16
f 28/24/17 26/29/17 34/30/17 36/25/17
f 26/29/18 27/27/18 35/28/18 34/30/18
f 35/31/19 29/32/19 30/33/19 31/34/19
f 31/28/20 30/26/20 33/25/20 32/30/20
f 35/32/21 31/33/21 32/34/21 34/31/21
f 32/34/22 33/33/22 36/32/22 34/31/22
f 30/33/23 29/32/23 36/31/23 33/34/23
f 37/23/24 41/26/24 48/25/24 40/24/24
f 39/27/25 47/28/25 41/26/25 37/23/25
f 40/24/26 48/25/26 46/30/26 38/29/26
f 38/29/27 46/30/27 47/28/27 39/27/27
f 47/35/19 43/36/19 42/37/19 41/38/19
f 43/28/28 44/30/28 45/25/28 42/26/28
f 47/38/21 46/35/21 44/36/21 43/37/21
f 44/36/22 46/35/22 48/38/22 45/37/22
f 42/37/23 45/36/23 48/35/23 41/38/23
f 38/39/21 39/40/21 27/41/21 26/42/21
f 39/39/19 37/43/19 25/44/19 27/42/19
f 37/40/23 40/39/23 28/42/23 25/41/23
f 40/43/22 38/39/22 26/42/22 28/44/22
