# Blender 4.1.1
# www.blender.org
mtllib boxes3.mtl
o box_lowp.005
v 0.538244 1.476994 -0.409929
v 1.178860 1.476994 1.019360
v 1.519911 1.476994 -0.114710
v 0.197193 1.476994 0.724141
v 0.508746 1.460440 -0.475742
v 0.508746 1.787616 -0.475742
v 1.580817 1.787615 -0.153336
v 1.208358 1.787615 1.085173
v 0.136286 1.787616 0.762767
v 1.208358 1.460440 1.085173
v 1.580817 1.460440 -0.153336
v 0.136286 1.460440 0.762767
v 0.538244 0.256462 -0.409929
v 1.178860 0.256462 1.019360
v 1.519911 0.256462 -0.114710
v 0.197193 0.256462 0.724141
v 0.508746 0.273016 -0.475742
v 0.508746 -0.054158 -0.475742
v 1.580817 -0.054158 -0.153336
v 1.208358 -0.054158 1.085173
v 0.136286 -0.054158 0.762767
v 1.208358 0.273016 1.085173
v 1.580817 0.273016 -0.153336
v 0.136286 0.273016 0.762767
vn 0.3169 -0.9437 0.0953
vn -0.0837 -0.9569 0.2782
vn 0.0837 -0.9569 -0.2782
vn -0.3169 -0.9437 -0.0953
vn 0.2880 -0.0000 -0.9576
vn -0.0000 1.0000 -0.0000
vn 0.9576 -0.0000 0.2880
vn -0.2880 -0.0000 0.9576
vn -0.9576 -0.0000 -0.2880
vn 0.3169 0.9437 0.0953
vn -0.0837 0.9569 0.2782
vn 0.0837 0.9569 -0.2782
vn -0.3169 0.9437 -0.0953
vn -0.0000 -1.0000 -0.0000
vt 0.957837 0.119864
vt 0.957837 0.880136
vt 1.000000 0.915144
vt 1.000000 0.084856
vt 0.042164 0.119864
vt 0.000000 0.084856
vt 0.042164 0.880136
vt 0.000000 0.915144
vt 0.000000 0.251947
vt 1.000000 0.251947
vt 1.000000 0.115253
vt 0.000000 0.115254
vt 0.000000 0.748053
vt 0.000000 0.884747
vt 1.000000 0.884746
vt 1.000000 0.748053
vt 0.042164 0.754969
vt 0.957836 0.754969
vt 0.957836 0.245031
vt 0.042164 0.245031
vt 0.957837 0.754969
vt 0.957837 0.245031
s 0
usemtl box
f 1/1/1 4/2/1 12/3/1 5/4/1
f 3/5/2 1/1/2 5/4/2 11/6/2
f 4/2/3 2/7/3 10/8/3 12/3/3
f 2/7/4 3/5/4 11/6/4 10/8/4
f 11/9/5 5/10/5 6/11/5 7/12/5
f 7/6/6 6/4/6 9/3/6 8/8/6
f 11/10/7 7/11/7 8/12/7 10/9/7
f 8/12/8 9/11/8 12/10/8 10/9/8
f 6/11/9 5/10/9 12/9/9 9/12/9
f 13/1/10 17/4/10 24/3/10 16/2/10
f 15/5/11 23/6/11 17/4/11 13/1/11
f 16/2/12 24/3/12 22/8/12 14/7/12
f 14/7/13 22/8/13 23/6/13 15/5/13
f 23/13/5 19/14/5 18/15/5 17/16/5
f 19/6/14 20/8/14 21/3/14 18/4/14
f 23/16/7 22/13/7 20/14/7 19/15/7
f 20/14/8 22/13/8 24/16/8 21/15/8
f 18/15/9 21/14/9 24/13/9 17/16/9
f 14/17/7 15/18/7 3/19/7 2/20/7
f 15/17/5 13/21/5 1/22/5 3/20/5
f 13/18/9 16/17/9 4/20/9 1/19/9
f 16/21/8 14/17/8 2/20/8 4/22/8
o box_lowp.006
v 0.122016 0.258018 -0.903480
v -0.824619 0.258018 0.344372
v -0.900949 0.258018 -0.837407
v 0.198347 0.258018 0.278300
v 0.165605 0.274572 -0.960939
v 0.165605 -0.052603 -0.960939
v -0.951568 -0.052603 -0.888782
v -0.868208 -0.052603 0.401831
v 0.248965 -0.052603 0.329674
v -0.868208 0.274572 0.401831
v -0.951568 0.274572 -0.888782
v 0.248965 0.274572 0.329674
v 0.122016 1.478550 -0.903480
v -0.824619 1.478550 0.344372
v -0.900949 1.478550 -0.837407
v 0.198346 1.478550 0.278300
v 0.165605 1.461996 -0.960939
v 0.165605 1.789170 -0.960939
v -0.951568 1.789170 -0.888782
v -0.868208 1.789170 0.401831
v 0.248965 1.789170 0.329674
v -0.868208 1.461996 0.401831
v -0.951568 1.461996 -0.888782
v 0.248965 1.461996 0.329674
vn -0.3303 0.9437 0.0213
vn 0.0187 0.9569 0.2899
vn -0.0187 0.9569 -0.2899
vn 0.3303 0.9437 -0.0213
vn -0.0645 -0.0000 -0.9979
vn -0.0000 -1.0000 -0.0000
vn -0.9979 -0.0000 0.0645
vn 0.0645 -0.0000 0.9979
vn 0.9979 -0.0000 -0.0645
vn -0.3303 -0.9437 0.0213
vn 0.0187 -0.9569 0.2899
vn -0.0187 -0.9569 -0.2899
vn 0.3303 -0.9437 -0.0213
vn -0.0000 1.0000 -0.0000
vt 0.957837 0.119864
vt 0.957837 0.880136
vt 1.000000 0.915144
vt 1.000000 0.084856
vt 0.042164 0.119864
vt 0.000000 0.084856
vt 0.042164 0.880136
vt 0.000000 0.915144
vt 0.000000 0.251947
vt 1.000000 0.251947
vt 1.000000 0.115253
vt 0.000000 0.115254
vt 0.000000 0.748053
vt 0.000000 0.884747
vt 1.000000 0.884746
vt 1.000000 0.748053
vt 0.042164 0.754969
vt 0.957836 0.754969
vt 0.957836 0.245031
vt 0.042164 0.245031
vt 0.957837 0.754969
vt 0.957837 0.245031
s 0
usemtl box
f 25/23/15 28/24/15 36/25/15 29/26/15
f 27/27/16 25/23/16 29/26/16 35/28/16
f 28/24/17 26/29/17 34/30/17 36/25/17
f 26/29/18 27/27/18 35/28/18 34/30/18
f 35/31/19 29/32/19 30/33/19 31/34/19
f 31/28/20 30/26/20 33/25/20 32/30/20
f 35/32/21 31/33/21 32/34/21 34/31/21
f 32/34/22 33/33/22 36/32/22 34/31/22
f 30/33/23 29/32/23 36/31/23 33/34/23
f 37/23/24 41/26/24 48/25/24 40/24/24
f 39/27/25 47/28/25 41/26/25 37/23/25
f 40/24/26 48/25/26 46/30/26 38/29/26
f 38/29/27 46/30/27 47/28/27 39/27/27
f 47/35/19 43/36/19 42/37/19 41/38/19
f 43/28/28 44/30/28 45/25/28 42/26/28
f 47/38/21 46/35/21 44/36/21 43/37/21
f 44/36/22 46/35/22 48/38/22 45/37/22
f 42/37/23 45/36/23 48/35/23 41/38/23
f 38/39/21 39/40/21 27/41/21 26/42/21
f 39/39/19 37/43/19 25/44/19 27/42/19
f 37/40/23 40/39/23 28/42/23 25/41/23
f 40/43/22 38/39/22 26/42/22 28/44/22
