# Blender 4.0.1
# www.blender.org
mtllib grass.mtl
o Plane
v -0.000000 0.458360 0.068497
v 0.000000 0.000000 0.092944
v -0.000000 0.458360 -0.068497
v 0.000000 0.000000 -0.092944
v -0.000000 0.875208 0.040770
v -0.000000 0.875208 -0.040770
v -0.000000 1.274203 0.000000
vn 1.0000 -0.0000 -0.0000
vt 0.000059 0.999941
vt 0.111194 0.000059
vt 0.111194 0.999941
vt 0.240993 0.877214
vt 0.240992 0.122786
vt 0.350831 0.500000
vt 0.000059 0.000059
s 0
usemtl Grass
f 2/1/1 3/2/1 1/3/1
f 3/2/1 5/4/1 1/3/1
f 5/4/1 6/5/1 7/6/1
f 2/1/1 4/7/1 3/2/1
f 3/2/1 6/5/1 5/4/1
