# Blender 4.0.1
# www.blender.org
mtllib shield.mtl
o Plane.004
v -0.964425 -0.204244 -0.409273
v -0.964425 -0.204244 0.409273
v -0.974671 0.700000 -0.467263
v -0.974671 0.700000 0.467263
v -0.935575 -0.204244 -0.409273
v -0.935575 -0.204244 0.409273
v -0.925329 0.700000 -0.467263
v -0.925329 0.700000 0.467263
v -0.964425 -0.700000 0.000000
v -0.974671 0.700000 0.000000
v -0.935575 -0.700000 -0.000000
v -0.925329 0.700000 -0.000000
v -0.974671 0.535223 -0.233631
v -0.925329 0.535223 -0.233631
v -0.964425 -0.533934 -0.204636
v -0.935575 -0.533934 -0.204636
v -0.964425 -0.533934 0.204636
v -0.935575 -0.533934 0.204636
v -0.974671 0.535223 0.233631
v -0.925329 0.535223 0.233631
v -0.969548 0.247878 -0.438268
v -0.969548 0.247878 0.438268
v -0.930452 0.247878 -0.438268
v -0.930452 0.247878 0.438268
v -0.910383 0.000000 -0.000000
v -1.033831 0.000000 -0.000000
v -0.989617 0.000645 -0.219134
v -0.910383 0.000645 -0.219134
v -0.910383 0.000645 0.219134
v -0.989617 0.000645 0.219134
v -0.409273 -0.204244 0.964425
v 0.409273 -0.204244 0.964424
v -0.467263 0.700000 0.974672
v 0.467263 0.700000 0.974671
v -0.409273 -0.204244 0.935575
v 0.409273 -0.204244 0.935575
v -0.467263 0.700000 0.925329
v 0.467263 0.700000 0.925328
v 0.000000 -0.700000 0.964425
v 0.000000 0.700000 0.974671
v 0.000000 -0.700000 0.935575
v 0.000000 0.700000 0.925329
v -0.233631 0.535223 0.974672
v -0.233631 0.535223 0.925329
v -0.204636 -0.533934 0.964425
v -0.204636 -0.533934 0.935575
v 0.204636 -0.533934 0.964425
v 0.204636 -0.533934 0.935575
v 0.233631 0.535223 0.974671
v 0.233631 0.535223 0.925328
v -0.438268 0.247878 0.969548
v 0.438268 0.247878 0.969548
v -0.438268 0.247878 0.930452
v 0.438268 0.247878 0.930452
v -0.000000 0.000000 0.910383
v 0.000000 0.000000 1.033831
v -0.219134 0.000645 0.989617
v -0.219134 0.000645 0.910383
v 0.219134 0.000645 0.910383
v 0.219134 0.000645 0.989617
v 0.964425 -0.204244 0.409273
v 0.964425 -0.204244 -0.409273
v 0.974671 0.700000 0.467263
v 0.974671 0.700000 -0.467263
v 0.935575 -0.204244 0.409273
v 0.935575 -0.204244 -0.409273
v 0.925329 0.700000 0.467263
v 0.925329 0.700000 -0.467263
v 0.964425 -0.700000 -0.000000
v 0.974671 0.700000 -0.000000
v 0.935575 -0.700000 -0.000000
v 0.925329 0.700000 -0.000000
v 0.974671 0.535223 0.233631
v 0.925329 0.535223 0.233631
v 0.964425 -0.533934 0.204636
v 0.935575 -0.533934 0.204637
v 0.964425 -0.533934 -0.204637
v 0.935575 -0.533934 -0.204636
v 0.974671 0.535223 -0.233631
v 0.925329 0.535223 -0.233631
v 0.969548 0.247878 0.438268
v 0.969548 0.247878 -0.438268
v 0.930452 0.247878 0.438268
v 0.930452 0.247878 -0.438268
v 0.910383 0.000000 -0.000000
v 1.033831 0.000000 -0.000000
v 0.989617 0.000645 0.219134
v 0.910383 0.000645 0.219134
v 0.910383 0.000645 -0.219134
v 0.989617 0.000645 -0.219134
v 0.409273 -0.204244 -0.964425
v -0.409273 -0.204244 -0.964425
v 0.467263 0.700000 -0.974672
v -0.467263 0.700000 -0.974671
v 0.409273 -0.204244 -0.935575
v -0.409273 -0.204244 -0.935575
v 0.467263 0.700000 -0.925329
v -0.467263 0.700000 -0.925328
v 0.000000 -0.700000 -0.964425
v 0.000000 0.700000 -0.974671
v 0.000000 -0.700000 -0.935575
v 0.000000 0.700000 -0.925329
v 0.233631 0.535223 -0.974671
v 0.233631 0.535223 -0.925329
v 0.204637 -0.533934 -0.964425
v 0.204637 -0.533934 -0.935575
v -0.204636 -0.533934 -0.964425
v -0.204636 -0.533934 -0.935575
v -0.233631 0.535223 -0.974671
v -0.233631 0.535223 -0.925329
v 0.438268 0.247878 -0.969548
v -0.438268 0.247878 -0.969548
v 0.438268 0.247878 -0.930452
v -0.438268 0.247878 -0.930452
v 0.000000 0.000000 -0.910383
v 0.000000 0.000000 -1.033831
v 0.219134 0.000645 -0.989617
v 0.219134 0.000645 -0.910383
v -0.219134 0.000645 -0.910383
v -0.219134 0.000645 -0.989617
vn 0.9977 -0.0262 -0.0618
vn -0.9977 -0.0262 -0.0618
vn -0.0000 0.5274 -0.8496
vn -0.0000 0.0640 -0.9980
vn -0.0000 0.0640 0.9979
vn -0.0000 -0.8172 -0.5764
vn -0.0000 0.7765 0.6301
vn -0.9996 -0.0279 -0.0001
vn 0.9800 -0.0220 0.1977
vn 0.9977 -0.0262 0.0618
vn -0.9999 0.0119 0.0084
vn -0.0000 0.5274 0.8496
vn -0.0000 -0.8172 0.5764
vn -0.0000 0.7765 -0.6301
vn -0.9997 -0.0213 -0.0151
vn 0.9800 -0.0220 -0.1977
vn 0.9919 0.0984 -0.0798
vn -0.9989 0.0360 -0.0292
vn -0.9936 0.0184 0.1118
vn 0.9957 0.0491 0.0790
vn 0.9919 0.0984 0.0798
vn -0.9989 0.0471 0.0001
vn -0.9957 0.0491 -0.0790
vn 0.9957 0.0491 -0.0790
vn -0.0618 -0.0262 -0.9977
vn -0.0618 -0.0262 0.9977
vn -0.8496 0.5274 -0.0000
vn -0.9980 0.0640 -0.0000
vn 0.9979 0.0640 -0.0000
vn -0.5764 -0.8172 -0.0000
vn 0.6301 0.7765 -0.0000
vn -0.0001 -0.0279 0.9996
vn 0.1977 -0.0220 -0.9800
vn 0.0618 -0.0262 -0.9977
vn 0.0084 0.0119 0.9999
vn 0.8496 0.5274 -0.0000
vn 0.5764 -0.8172 -0.0000
vn -0.6301 0.7765 -0.0000
vn -0.0151 -0.0213 0.9997
vn -0.1977 -0.0220 -0.9800
vn -0.0798 0.0984 -0.9919
vn -0.0292 0.0360 0.9989
vn 0.1118 0.0184 0.9936
vn 0.0790 0.0491 -0.9957
vn 0.0798 0.0984 -0.9919
vn 0.0001 0.0471 0.9989
vn -0.9979 0.0640 -0.0000
vn -0.0790 0.0491 0.9957
vn -0.0790 0.0491 -0.9957
vn -0.9977 -0.0262 0.0618
vn 0.9996 -0.0279 0.0001
vn -0.9800 -0.0220 -0.1977
vn 0.9999 0.0119 -0.0084
vn 0.9997 -0.0213 0.0151
vn -0.9800 -0.0220 0.1977
vn -0.9919 0.0984 0.0798
vn 0.9989 0.0360 0.0292
vn 0.9936 0.0184 -0.1118
vn -0.9919 0.0984 -0.0798
vn 0.9989 0.0471 -0.0001
vn -0.0000 0.0640 -0.9979
vn -0.9957 0.0491 0.0790
vn 0.0618 -0.0262 0.9977
vn 0.0001 -0.0279 -0.9996
vn -0.1977 -0.0220 0.9800
vn -0.0084 0.0119 -0.9999
vn 0.0151 -0.0213 -0.9997
vn 0.1977 -0.0220 0.9800
vn 0.0798 0.0984 0.9919
vn 0.0292 0.0360 -0.9989
vn -0.1118 0.0184 -0.9936
vn -0.0798 0.0984 0.9919
vn -0.0001 0.0471 -0.9989
vn 0.0790 0.0491 0.9957
vn -0.9999 0.0119 -0.0084
vn -0.9997 -0.0213 0.0151
vn 0.9947 -0.0841 0.0593
vn 0.9999 0.0119 0.0084
vn -0.9996 -0.0279 0.0001
vn 0.9947 -0.0841 -0.0593
vn 0.9789 0.0515 -0.1977
vn -0.9989 0.0471 -0.0001
vn 0.9936 0.0184 0.1118
vn 0.9789 0.0515 0.1977
vn -0.9989 0.0360 0.0292
vn -0.9936 0.0184 -0.1118
vn -0.0084 0.0119 0.9999
vn 0.0151 -0.0213 0.9997
vn 0.0593 -0.0841 -0.9947
vn 0.0084 0.0119 -0.9999
vn 0.0001 -0.0279 0.9996
vn -0.0593 -0.0841 -0.9947
vn -0.1977 0.0515 -0.9789
vn -0.0001 0.0471 0.9989
vn 0.1118 0.0184 -0.9936
vn 0.1977 0.0515 -0.9789
vn 0.0292 0.0360 0.9989
vn -0.1118 0.0184 0.9936
vn 0.9997 -0.0213 -0.0151
vn -0.9947 -0.0841 -0.0593
vn 0.9996 -0.0279 -0.0001
vn -0.9947 -0.0841 0.0593
vn -0.9789 0.0515 0.1977
vn 0.9989 0.0471 0.0001
vn -0.9789 0.0515 -0.1977
vn 0.9989 0.0360 -0.0292
vn -0.0151 -0.0213 -0.9997
vn -0.0593 -0.0841 0.9947
vn -0.0001 -0.0279 -0.9996
vn 0.0593 -0.0841 0.9947
vn 0.1977 0.0515 0.9789
vn 0.0001 0.0471 -0.9989
vn -0.1977 0.0515 0.9789
vn -0.0292 0.0360 -0.9989
vt 0.750000 1.000000
vt 1.000000 0.500000
vt 0.750000 0.500000
vt 1.000000 0.000000
vt 0.750000 0.000000
vt 1.000000 1.000000
vt 0.000000 0.000000
vt 0.000000 0.500000
vt 0.000000 1.000000
vt 0.250000 1.000000
vt 0.500000 1.000000
vt 0.500000 0.000000
vt 0.250000 0.000000
vt 0.500000 0.500000
vt 0.250000 0.500000
s 0
f 19/1/1 22/2/1 30/3/1
f 24/2/2 20/1/2 29/3/2
f 2/4/3 18/5/3 17/5/3
f 22/2/4 8/6/4 24/2/4
f 1/7/5 23/8/5 21/8/5
f 3/9/6 14/10/6 13/10/6
f 10/11/6 20/1/6 19/1/6
f 9/12/7 16/13/7 15/13/7
f 25/14/8 14/10/8 28/15/8
f 13/10/9 26/14/9 27/15/9
f 21/8/10 13/10/10 27/15/10
f 23/8/11 14/10/11 7/9/11
f 15/13/12 5/7/12 1/7/12
f 13/10/13 12/11/13 10/11/13
f 19/1/13 8/6/13 4/6/13
f 17/5/14 11/12/14 9/12/14
f 25/14/15 20/1/15 12/11/15
f 26/14/16 19/1/16 30/3/16
f 26/14/17 17/5/17 9/12/17
f 18/5/18 25/14/18 11/12/18
f 5/7/19 28/15/19 23/8/19
f 1/7/20 27/15/20 15/13/20
f 15/13/21 26/14/21 9/12/21
f 16/13/22 25/14/22 28/15/22
f 21/8/5 7/9/5 3/9/5
f 22/2/4 6/4/4 2/4/4
f 6/4/23 29/3/23 18/5/23
f 30/3/24 2/4/24 17/5/24
f 49/1/25 52/2/25 60/3/25
f 54/2/26 50/1/26 59/3/26
f 32/4/27 48/5/27 47/5/27
f 34/6/28 54/2/28 52/2/28
f 51/8/29 35/7/29 53/8/29
f 33/9/30 44/10/30 43/10/30
f 49/1/30 42/11/30 50/1/30
f 39/12/31 46/13/31 45/13/31
f 55/14/32 44/10/32 58/15/32
f 43/10/33 56/14/33 57/15/33
f 51/8/34 43/10/34 57/15/34
f 53/8/35 44/10/35 37/9/35
f 45/13/36 35/7/36 31/7/36
f 43/10/37 42/11/37 40/11/37
f 49/1/37 38/6/37 34/6/37
f 47/5/38 41/12/38 39/12/38
f 55/14/39 50/1/39 42/11/39
f 56/14/40 49/1/40 60/3/40
f 56/14/41 47/5/41 39/12/41
f 48/5/42 55/14/42 41/12/42
f 35/7/43 58/15/43 53/8/43
f 31/7/44 57/15/44 45/13/44
f 45/13/45 56/14/45 39/12/45
f 46/13/46 55/14/46 58/15/46
f 51/8/29 37/9/29 33/9/29
f 52/2/47 36/4/47 32/4/47
f 36/4/48 59/3/48 48/5/48
f 60/3/49 32/4/49 47/5/49
f 79/1/50 82/2/50 90/3/50
f 84/2/10 80/1/10 89/3/10
f 77/5/12 66/4/12 78/5/12
f 64/6/5 84/2/5 82/2/5
f 61/7/4 83/8/4 81/8/4
f 63/9/13 74/10/13 73/10/13
f 70/11/13 80/1/13 79/1/13
f 75/13/14 71/12/14 76/13/14
f 85/14/51 74/10/51 88/15/51
f 73/10/52 86/14/52 87/15/52
f 81/8/2 73/10/2 87/15/2
f 83/8/53 74/10/53 67/9/53
f 75/13/3 65/7/3 61/7/3
f 73/10/6 72/11/6 70/11/6
f 79/1/6 68/6/6 64/6/6
f 69/12/7 78/5/7 71/12/7
f 85/14/54 80/1/54 72/11/54
f 86/14/55 79/1/55 90/3/55
f 86/14/56 77/5/56 69/12/56
f 78/5/57 85/14/57 71/12/57
f 65/7/58 88/15/58 83/8/58
f 61/7/23 87/15/23 75/13/23
f 75/13/59 86/14/59 69/12/59
f 76/13/60 85/14/60 88/15/60
f 63/9/61 83/8/61 67/9/61
f 82/2/5 66/4/5 62/4/5
f 66/4/20 89/3/20 78/5/20
f 90/3/62 62/4/62 77/5/62
f 109/1/63 112/2/63 120/3/63
f 114/2/34 110/1/34 119/3/34
f 92/4/36 108/5/36 107/5/36
f 94/6/29 114/2/29 112/2/29
f 91/7/28 113/8/28 111/8/28
f 93/9/37 104/10/37 103/10/37
f 100/11/37 110/1/37 109/1/37
f 99/12/38 106/13/38 105/13/38
f 115/14/64 104/10/64 118/15/64
f 103/10/65 116/14/65 117/15/65
f 111/8/26 103/10/26 117/15/26
f 113/8/66 104/10/66 97/9/66
f 91/7/27 106/13/27 95/7/27
f 103/10/30 102/11/30 100/11/30
f 94/6/30 110/1/30 98/6/30
f 107/5/31 101/12/31 99/12/31
f 115/14/67 110/1/67 102/11/67
f 116/14/68 109/1/68 120/3/68
f 116/14/69 107/5/69 99/12/69
f 108/5/70 115/14/70 101/12/70
f 95/7/71 118/15/71 113/8/71
f 91/7/48 117/15/48 105/13/48
f 105/13/72 116/14/72 99/12/72
f 106/13/73 115/14/73 118/15/73
f 111/8/28 97/9/28 93/9/28
f 112/2/29 96/4/29 92/4/29
f 96/4/44 119/3/44 108/5/44
f 120/3/74 92/4/74 107/5/74
f 19/1/53 4/6/53 22/2/53
f 24/2/75 8/6/75 20/1/75
f 2/4/3 6/4/3 18/5/3
f 22/2/4 4/6/4 8/6/4
f 1/7/5 5/7/5 23/8/5
f 3/9/6 7/9/6 14/10/6
f 10/11/6 12/11/6 20/1/6
f 9/12/7 11/12/7 16/13/7
f 25/14/76 12/11/76 14/10/76
f 13/10/77 10/11/77 26/14/77
f 21/8/78 3/9/78 13/10/78
f 23/8/50 28/15/50 14/10/50
f 15/13/12 16/13/12 5/7/12
f 13/10/13 14/10/13 12/11/13
f 19/1/13 20/1/13 8/6/13
f 17/5/14 18/5/14 11/12/14
f 25/14/79 29/3/79 20/1/79
f 26/14/80 10/11/80 19/1/80
f 26/14/81 30/3/81 17/5/81
f 18/5/82 29/3/82 25/14/82
f 5/7/62 16/13/62 28/15/62
f 1/7/83 21/8/83 27/15/83
f 15/13/84 27/15/84 26/14/84
f 16/13/85 11/12/85 25/14/85
f 21/8/5 23/8/5 7/9/5
f 22/2/4 24/2/4 6/4/4
f 6/4/86 24/2/86 29/3/86
f 30/3/58 22/2/58 2/4/58
f 49/1/66 34/6/66 52/2/66
f 54/2/87 38/6/87 50/1/87
f 32/4/27 36/4/27 48/5/27
f 34/6/28 38/6/28 54/2/28
f 51/8/29 31/7/29 35/7/29
f 33/9/30 37/9/30 44/10/30
f 49/1/30 40/11/30 42/11/30
f 39/12/31 41/12/31 46/13/31
f 55/14/88 42/11/88 44/10/88
f 43/10/89 40/11/89 56/14/89
f 51/8/90 33/9/90 43/10/90
f 53/8/63 58/15/63 44/10/63
f 45/13/36 46/13/36 35/7/36
f 43/10/37 44/10/37 42/11/37
f 49/1/37 50/1/37 38/6/37
f 47/5/38 48/5/38 41/12/38
f 55/14/91 59/3/91 50/1/91
f 56/14/92 40/11/92 49/1/92
f 56/14/93 60/3/93 47/5/93
f 48/5/94 59/3/94 55/14/94
f 35/7/74 46/13/74 58/15/74
f 31/7/95 51/8/95 57/15/95
f 45/13/96 57/15/96 56/14/96
f 46/13/97 41/12/97 55/14/97
f 51/8/29 53/8/29 37/9/29
f 52/2/28 54/2/28 36/4/28
f 36/4/98 54/2/98 59/3/98
f 60/3/71 52/2/71 32/4/71
f 79/1/11 64/6/11 82/2/11
f 84/2/78 68/6/78 80/1/78
f 77/5/12 62/4/12 66/4/12
f 64/6/5 68/6/5 84/2/5
f 61/7/61 65/7/61 83/8/61
f 63/9/13 67/9/13 74/10/13
f 70/11/13 72/11/13 80/1/13
f 75/13/14 69/12/14 71/12/14
f 85/14/99 72/11/99 74/10/99
f 73/10/100 70/11/100 86/14/100
f 81/8/75 63/9/75 73/10/75
f 83/8/1 88/15/1 74/10/1
f 75/13/3 76/13/3 65/7/3
f 73/10/6 74/10/6 72/11/6
f 79/1/6 80/1/6 68/6/6
f 69/12/7 77/5/7 78/5/7
f 85/14/101 89/3/101 80/1/101
f 86/14/102 70/11/102 79/1/102
f 86/14/103 90/3/103 77/5/103
f 78/5/104 89/3/104 85/14/104
f 65/7/24 76/13/24 88/15/24
f 61/7/86 81/8/86 87/15/86
f 75/13/105 87/15/105 86/14/105
f 76/13/106 71/12/106 85/14/106
f 63/9/4 81/8/4 83/8/4
f 82/2/5 84/2/5 66/4/5
f 66/4/83 84/2/83 89/3/83
f 90/3/19 82/2/19 62/4/19
f 109/1/35 94/6/35 112/2/35
f 114/2/90 98/6/90 110/1/90
f 92/4/36 96/4/36 108/5/36
f 94/6/29 98/6/29 114/2/29
f 91/7/28 95/7/28 113/8/28
f 93/9/37 97/9/37 104/10/37
f 100/11/37 102/11/37 110/1/37
f 99/12/38 101/12/38 106/13/38
f 115/14/107 102/11/107 104/10/107
f 103/10/108 100/11/108 116/14/108
f 111/8/87 93/9/87 103/10/87
f 113/8/25 118/15/25 104/10/25
f 91/7/27 105/13/27 106/13/27
f 103/10/30 104/10/30 102/11/30
f 94/6/30 109/1/30 110/1/30
f 107/5/31 108/5/31 101/12/31
f 115/14/109 119/3/109 110/1/109
f 116/14/110 100/11/110 109/1/110
f 116/14/111 120/3/111 107/5/111
f 108/5/112 119/3/112 115/14/112
f 95/7/49 106/13/49 118/15/49
f 91/7/98 111/8/98 117/15/98
f 105/13/113 117/15/113 116/14/113
f 106/13/114 101/12/114 115/14/114
f 111/8/28 113/8/28 97/9/28
f 112/2/29 114/2/29 96/4/29
f 96/4/95 114/2/95 119/3/95
f 120/3/43 112/2/43 92/4/43
